<?xml version="1.0" encoding="UTF-8" standalone="no"?>
<svg
   viewBox="0 0 28 28"
   alt=""
   class="x1lliihq x1k90msu x2h7rmj x1qfuztq x198g3q0"
   fill="currentColor"
   height="20"
   width="20"
   version="1.1"
   id="svg26"
   sodipodi:docname="messenger-icon.svg"
   inkscape:version="1.1 (c68e22c387, 2021-05-23)"
   xmlns:inkscape="http://www.inkscape.org/namespaces/inkscape"
   xmlns:sodipodi="http://sodipodi.sourceforge.net/DTD/sodipodi-0.dtd"
   xmlns="http://www.w3.org/2000/svg"
   xmlns:svg="http://www.w3.org/2000/svg">
  <defs
     id="defs30" />
  <sodipodi:namedview
     id="namedview28"
     pagecolor="#ffffff"
     bordercolor="#666666"
     borderopacity="1.0"
     inkscape:pageshadow="2"
     inkscape:pageopacity="0.0"
     inkscape:pagecheckerboard="0"
     showgrid="false"
     inkscape:zoom="45.4"
     inkscape:cx="0.26431718"
     inkscape:cy="11.23348"
     inkscape:window-width="3840"
     inkscape:window-height="2054"
     inkscape:window-x="3829"
     inkscape:window-y="-11"
     inkscape:window-maximized="1"
     inkscape:current-layer="svg26" />
  <path
     d="M14 2.042c6.76 0 12 4.952 12 11.64S20.76 25.322 14 25.322a13.091 13.091 0 0 1-3.474-.461.956 .956 0 0 0-.641.047L7.5 25.959a.961.961 0 0 1-1.348-.849l-.065-2.134a.957.957 0 0 0-.322-.684A11.389 11.389 0 0 1 2 13.682C2 6.994 7.24 2.042 14 2.042ZM6.794 17.086a.57.57 0 0 0 .827.758l3.786-2.874a.722.722 0 0 1 .868 0l2.8 2.1a1.8 1.8 0 0 0 2.6-.481l3.525-5.592a.57.57 0 0 0-.827-.758l-3.786 2.874a.722.722 0 0 1-.868 0l-2.8-2.1a1.8 1.8 0 0 0-2.6.481Z"
     id="path24"
     style="fill:#808080;fill-opacity:0.90196079" />
</svg>
